<?xml version="1.0" encoding="UTF-8" standalone="no"?>
<svg
   xmlns:dc="http://purl.org/dc/elements/1.1/"
   xmlns:cc="http://creativecommons.org/ns#"
   xmlns:rdf="http://www.w3.org/1999/02/22-rdf-syntax-ns#"
   xmlns:svg="http://www.w3.org/2000/svg"
   xmlns="http://www.w3.org/2000/svg"
   viewBox="0 0 5334.6665 5334.6665"
   height="5334.6665"
   width="5334.6665"
   xml:space="preserve"
   id="svg2"
   version="1.1"><metadata
     id="metadata8"><rdf:RDF><cc:Work
         rdf:about=""><dc:format>image/svg+xml</dc:format><dc:type
           rdf:resource="http://purl.org/dc/dcmitype/StillImage" /></cc:Work></rdf:RDF></metadata><defs
     id="defs6" /><g
     transform="matrix(1.3333333,0,0,-1.3333333,0,5334.6667)"
     id="g10"><g
       transform="scale(0.1)"
       id="g12"><g
         transform="scale(2.45429)"
         id="g14"><path
           id="path16"
           style="fill:#ffffff;fill-opacity:1;fill-rule:nonzero;stroke:none"
           d="M 16300,2.03725 H 2.03725 V 16300 H 16300 V 2.03725" /></g><g
         transform="scale(2.45429)"
         id="g18"><path
           id="path20"
           style="fill:none;stroke:#211d1d;stroke-width:4.07449007;stroke-linecap:butt;stroke-linejoin:miter;stroke-miterlimit:10;stroke-dasharray:none;stroke-opacity:1"
           d="M 16300,2.03725 H 2.03725 V 16300 H 16300 Z" /></g><g
         transform="scale(1.98121)"
         id="g22"><path
           id="path24"
           style="fill:#100f0d;fill-opacity:1;fill-rule:evenodd;stroke:none"
           d="m 7962.06,10437.3 c -641.33,-51.3 -1000.5,-461.77 -1000.5,-461.77 -1487.98,1376.77 -162.48,3488.97 -162.48,3488.97 -68.39,-564.4 119.73,-838.1 119.73,-838.1 51.28,1043.3 1257.06,2163.5 1257.06,2163.5 -1812.88,692.6 -2129.31,-889.3 -2129.31,-889.3 -248.78,832.9 227.14,1828.9 1099.63,1907 674.85,60.5 1525.59,-504.6 1525.59,-504.6 -68.39,-179.6 -76.93,-513.1 -76.93,-513.1 478.85,709.7 1500.75,726.9 1500.75,726.9 0,0 1021.9,-17.2 1500.8,-726.9 0,0 -8.6,333.5 -77,513.1 0,0 850.8,565.1 1525.7,504.6 872.4,-78.1 1348.4,-1074.1 1099.6,-1907 0,0 -316.4,1581.9 -2129.3,889.3 0,0 1205.7,-1120.2 1257,-2163.5 0,0 188.2,273.7 119.8,838.1 0,0 1325.4,-2112.2 -162.5,-3488.97 0,0 -359.2,410.47 -1000.5,461.77 0,0 761.1,-992 -145.4,-1684.66 0,0 94.1,248.03 -307.9,726.88 0,0 -418.9,444.67 -504.4,983.48 -224.4,-724.15 994.4,-2261.79 -299.4,-2317.47 l -590,-17.11 c 0,0 -196.7,68.4 -94,205.23 0,0 1103,649.91 487.3,1257.06 0,0 -521.6,25.64 -679.8,-111.19 -158.18,136.83 -679.83,111.19 -679.83,111.19 -615.69,-607.15 487.48,-1257.06 487.48,-1257.06 102.55,-136.83 -94.09,-205.23 -94.09,-205.23 l -590.04,17.11 c -1293.81,55.68 -74.95,1593.32 -299.36,2317.47 -85.45,-538.81 -504.49,-983.48 -504.49,-983.48 -401.93,-478.85 -307.84,-726.88 -307.84,-726.88 -906.42,692.66 -145.37,1684.66 -145.37,1684.66 z m 2133.54,5404.4 c 0,0 -790.98,-34.2 -1201.43,-273.7 0,0 -1017.46,732 -1859.22,642.8 -326.11,-34.6 -779.58,-333.4 -1075,-686.4 -534.88,-638.9 -210.58,-1872.8 95.19,-2547.4 0,0 -205.22,-624.2 -247.98,-855.1 L 4592.84,10574.1 c 0,0 -394.93,-554.6 -554.13,-1455.98 137.96,-436.2 321.58,-852.11 545.52,-1241.97 25.11,20.19 50.82,38.87 77.05,55.57 0,0 3.93,-83.53 24.47,-225.67 810.69,-1314.6 2087.04,-2311.16 3599.09,-2760.18 -1583.37,941.65 -1511.4,2459.96 -1511.4,2459.96 -658.43,-521.65 -632.8,-1214.31 -632.8,-1214.31 -1359.62,1291.29 -444.67,3189.67 -444.67,3189.67 -675.52,-34.22 -957.75,-393.34 -957.75,-393.34 -68.44,1094.55 1068.89,2077.95 1068.89,2077.95 17.16,-1197.23 1282.75,-2334.51 1282.75,-2334.51 8.53,247.98 205.23,495.96 205.23,495.96 205.23,-983.39 1214.21,-1222.84 1214.21,-1222.84 192.46,-42.75 448.97,-196.65 448.97,-196.65 410.46,-534.47 1137.33,-632.8 1137.33,-632.8 0,0 726.9,98.33 1137.3,632.8 0,0 256.6,153.9 449,196.65 0,0 1009,239.45 1214.3,1222.84 0,0 196.6,-247.98 205.2,-495.96 0,0 1265.6,1137.28 1282.7,2334.51 0,0 1137.3,-983.4 1068.9,-2077.95 0,0 -282.2,359.12 -957.8,393.34 0,0 915,-1898.38 -444.6,-3189.67 0,0 25.7,692.66 -632.8,1214.31 0,0 71.9,-1518.31 -1511.3,-2459.96 1511.9,449.02 2788.2,1445.63 3599,2760.18 20.5,142.14 24.5,225.67 24.5,225.67 26.2,-16.7 51.9,-35.38 77,-55.57 223.9,389.82 407.5,805.77 545.5,1241.97 -159.2,901.38 -554.1,1455.98 -554.1,1455.98 L 14384,12121.9 c -42.7,230.9 -247.9,855.1 -247.9,855.1 305.7,674.6 630.1,1908.5 95.2,2547.4 -295.5,353 -748.9,651.8 -1075,686.4 -841.7,89.2 -1859.3,-642.8 -1859.3,-642.8 -410.4,239.5 -1201.4,273.7 -1201.4,273.7 z m 0,-8358.89 c 0,0 -551.98,95.19 -619.92,376.23 h 619.92 619.9 c -67.9,-281.04 -619.9,-376.23 -619.9,-376.23" /></g><g
         transform="scale(1.50611)"
         id="g26"><path
           id="path28"
           style="fill:#100f0d;fill-opacity:1;fill-rule:evenodd;stroke:none"
           d="m 11801.1,15045.7 c -36.9,-274.5 -0.4,-497 168.7,-714.3 -0.1,792.5 533.3,1042.6 393.6,1833.6 0,0 -134.9,-326.3 -281.1,-382.5 0,0 -989.9,123.8 -1091.1,517.5 0,0 -319.7,-742.2 371.2,-1068.6 0,0 -196.9,163 -168.8,511.7 0,0 590.6,22.5 781.8,-438.6 0,0 -275.6,-132.2 -455.5,-137.9 0,0 89.9,-98.4 281.2,-120.9" /></g><g
         transform="scale(1.50611)"
         id="g30"><path
           id="path32"
           style="fill:#100f0d;fill-opacity:1;fill-rule:evenodd;stroke:none"
           d="m 14759.5,15045.7 c 36.8,-274.5 0.2,-497 -168.8,-714.3 0.1,792.5 -533.3,1042.6 -393.7,1833.6 0,0 134.9,-326.3 281.2,-382.5 0,0 989.9,123.8 1091.2,517.5 0,0 319.7,-742.2 -371.2,-1068.6 0,0 196.8,163 168.7,511.7 0,0 -590.6,22.5 -781.8,-438.6 0,0 275.6,-132.2 455.5,-137.9 0,0 -90,-98.4 -281.1,-120.9" /></g><g
         transform="scale(1.52487)"
         id="g34"><path
           id="path36"
           style="fill:#100f0d;fill-opacity:1;fill-rule:evenodd;stroke:none"
           d="m 13116.8,6833.36 c -2216.5,88.93 -3183.04,1611.03 -3183.04,1611.03 851.74,-2998.16 5514.54,-2998.16 6366.24,0 0,0 -966.6,-1522.1 -3183.2,-1611.03" /></g></g></g></svg>