<?xml version="1.0" encoding="UTF-8" standalone="no"?>
<svg
   xmlns:dc="http://purl.org/dc/elements/1.1/"
   xmlns:cc="http://creativecommons.org/ns#"
   xmlns:rdf="http://www.w3.org/1999/02/22-rdf-syntax-ns#"
   xmlns:svg="http://www.w3.org/2000/svg"
   xmlns="http://www.w3.org/2000/svg"
   viewBox="0 0 5334.6665 5334.6665"
   height="5334.6665"
   width="5334.6665"
   xml:space="preserve"
   id="svg2"
   version="1.1"><metadata
     id="metadata8"><rdf:RDF><cc:Work
         rdf:about=""><dc:format>image/svg+xml</dc:format><dc:type
           rdf:resource="http://purl.org/dc/dcmitype/StillImage" /></cc:Work></rdf:RDF></metadata><defs
     id="defs6" /><g
     transform="matrix(1.3333333,0,0,-1.3333333,0,5334.6667)"
     id="g10"><g
       transform="scale(0.1)"
       id="g12"><g
         transform="scale(2.45429)"
         id="g14"><path
           id="path16"
           style="fill:#ffffff;fill-opacity:1;fill-rule:nonzero;stroke:none"
           d="M 16300,2.03725 H 2.03725 V 16300 H 16300 V 2.03725" /></g><g
         transform="scale(2.45429)"
         id="g18"><path
           id="path20"
           style="fill:none;stroke:#211d1d;stroke-width:4.07449007;stroke-linecap:butt;stroke-linejoin:miter;stroke-miterlimit:10;stroke-dasharray:none;stroke-opacity:1"
           d="M 16300,2.03725 H 2.03725 V 16300 H 16300 Z" /></g><g
         transform="scale(2.03294)"
         id="g22"><path
           id="path24"
           style="fill:#100f0d;fill-opacity:1;fill-rule:evenodd;stroke:none"
           d="m 6560.53,12280.3 c -174.18,1409.5 649.31,1932.1 649.31,1932.1 -1678.7,427.6 -2201.29,-2074.6 -2201.29,-2074.6 -527.26,2504.7 2037.83,3638.2 2692.25,2312.1 680.98,1457 2137.93,886.9 2137.93,886.9 0,0 1456.97,570.1 2137.87,-886.9 0,0 601.8,1219.5 2138,31.7 0,0 871,-839.3 554.2,-2343.8 0,0 -522.6,2502.2 -2201.3,2074.6 0,0 823.6,-522.6 649.3,-1932.1 0,0 140.5,-2824.95 -658.2,-3304.95 0,0 -117.7,1927.25 -1527.2,2513.15 0,0 1837.1,-2169.6 665.1,-3468.21 -533.7,-386.49 -937.2,524.61 -1177.9,831.3 -241.6,307.83 -525.61,518.66 -453.3,912.23 57.5,312.58 337.4,485.48 550,762.08 271.4,353.1 413.3,817.7 -676.57,851.8 -1089.89,-34.1 -948.03,-498.7 -676.65,-851.8 212.55,-276.6 492.59,-449.5 549.99,-762.08 72.31,-393.57 -211.57,-604.4 -453.28,-912.23 C 9018.05,8544.9 8614.6,7633.8 8080.84,8020.29 6908.99,9318.9 8745.98,11488.5 8745.98,11488.5 7336.55,10902.6 7218.79,8975.35 7218.79,8975.35 c -798.64,480 -658.26,3304.95 -658.26,3304.95 z m 3278.2,3571.2 c 0,0 -1377.85,221.7 -2042.95,-475.1 0,0 -4418.38,261.3 -2866.38,-3982.9 0,0 427.56,1108.5 1235.2,823.5 0,0 -126.66,-1789.6 380.09,-3072.33 0,0 -1491.04,-2022.64 -1323.3,-3582 574.64,-718.71 1313.52,-1300.33 2159.82,-1687.99 -1249.96,859.19 -2049.34,1942.4 -1058.17,3797.29 -15.83,-1457 1108.59,-2058.78 1108.59,-2058.78 -760.22,1631.18 -55.43,1916.23 -55.43,1916.23 577.98,-411.76 1369.83,7.92 1369.83,7.92 253.38,-506.75 1092.7,-498.88 1092.7,-498.88 0,0 839.27,-7.87 1092.67,498.88 0,0 791.8,-419.68 1369.9,-7.92 0,0 704.7,-285.05 -55.5,-1916.23 0,0 1124.4,601.78 1108.6,2058.78 991.1,-1854.89 191.8,-2938.1 -1058.2,-3797.25 846.3,387.67 1585.2,969.24 2159.9,1688 167.7,1559.31 -1323.4,3581.95 -1323.4,3581.95 506.8,1282.73 380.1,3072.33 380.1,3072.33 807.7,285 1235.2,-823.5 1235.2,-823.5 1552,4244.2 -2866.4,3982.9 -2866.4,3982.9 -665.1,696.8 -2042.87,475.1 -2042.87,475.1 z m 0,-8322.08 c -1346.22,79.2 0,1425.27 0,1425.27 0,0 1346.17,-1346.07 0,-1425.27" /></g><g
         transform="scale(1.66)"
         id="g26"><path
           id="path28"
           style="fill:#100f0d;fill-opacity:1;fill-rule:evenodd;stroke:none"
           d="m 10943.7,15640.6 c 0,0 -417,29.1 -581.9,-213.3 0,0 -649.63,872.7 -1454.51,174.5 0,0 174.52,-426.7 528.49,-523.7 0,0 -179.45,228 -193.97,441.3 0,0 732.11,169.7 930.99,-499.4 0,0 -295.87,-48.5 -538.22,-19.4 141.14,-145.9 414.12,-124.2 512.82,-254.2 113.3,-149.4 120.3,-395.7 255.7,-558 -108.9,561.2 -14.1,1148.9 540.6,1452.2" /></g><g
         transform="scale(1.66)"
         id="g30"><path
           id="path32"
           style="fill:#100f0d;fill-opacity:1;fill-rule:evenodd;stroke:none"
           d="m 13154.5,15640.6 c 0,0 417,29.1 581.9,-213.3 0,0 649.7,872.7 1454.6,174.5 0,0 -174.6,-426.7 -528.5,-523.7 0,0 179.4,228 193.9,441.3 0,0 -732.1,169.7 -930.9,-499.4 0,0 295.8,-48.5 538.2,-19.4 -141.2,-145.9 -414.2,-124.2 -512.8,-254.2 -113.4,-149.4 -120.4,-395.7 -255.7,-558 108.8,561.2 14,1148.9 -540.7,1452.2" /></g><g
         transform="scale(1.59249)"
         id="g34"><path
           id="path36"
           style="fill:#ffffff;fill-opacity:1;fill-rule:evenodd;stroke:none"
           d="m 11819.6,11299.8 c 308.6,393 671,662.1 578.7,1164.5 -73.3,399 -430.8,619.7 -702.2,972.8 -346.4,450.8 -527.5,1044 863.8,1087.4 1391.4,-43.4 1210.2,-636.6 863.7,-1087.4 -271.3,-353.1 -628.7,-573.8 -702.1,-972.8 -92.3,-502.4 270.2,-771.5 578.7,-1164.5 307.3,-391.5 822.4,-1554.63 1503.7,-1061.2 1496.1,1657.7 -849.1,4427.4 -849.1,4427.4 0,0 -553,332.8 -1394.9,325.5 -841.8,7.3 -1394.9,-325.5 -1394.9,-325.5 0,0 -2345.11,-2769.7 -849.1,-4427.4 681.3,-493.43 1196.4,669.7 1503.7,1061.2" /></g><g
         transform="scale(1.62211)"
         id="g38"><path
           id="path40"
           style="fill:#ffffff;fill-opacity:1;fill-rule:evenodd;stroke:none"
           d="m 12330.6,4752.33 c 2347.1,788.66 2813.2,3478.55 2813.2,3478.55 238.1,-674.8 203.6,-1196.03 203.6,-1196.03 952.6,2044.31 69.4,2401.56 69.4,2401.56 -724.5,-516.06 -1716.8,9.92 -1716.8,9.92 -317.6,-635.09 -1369.4,-625.23 -1369.4,-625.23 0,0 -1051.9,-9.86 -1369.4,625.23 0,0 -992.46,-525.98 -1716.82,-9.92 0,0 -883.3,-357.25 69.47,-2401.56 0,0 -34.64,521.23 203.5,1196.03 0,0 466.06,-2689.89 2813.25,-3478.55" /></g></g></g></svg>