<?xml version="1.0" encoding="UTF-8" standalone="no"?>
<svg
   xmlns:dc="http://purl.org/dc/elements/1.1/"
   xmlns:cc="http://creativecommons.org/ns#"
   xmlns:rdf="http://www.w3.org/1999/02/22-rdf-syntax-ns#"
   xmlns:svg="http://www.w3.org/2000/svg"
   xmlns="http://www.w3.org/2000/svg"
   viewBox="0 0 5334.6665 5334.6665"
   height="5334.6665"
   width="5334.6665"
   xml:space="preserve"
   id="svg2"
   version="1.1"><metadata
     id="metadata8"><rdf:RDF><cc:Work
         rdf:about=""><dc:format>image/svg+xml</dc:format><dc:type
           rdf:resource="http://purl.org/dc/dcmitype/StillImage" /></cc:Work></rdf:RDF></metadata><defs
     id="defs6" /><g
     transform="matrix(1.3333333,0,0,-1.3333333,0,5334.6667)"
     id="g10"><g
       transform="scale(0.1)"
       id="g12"><g
         transform="scale(2.45429)"
         id="g14"><path
           id="path16"
           style="fill:#ffffff;fill-opacity:1;fill-rule:nonzero;stroke:none"
           d="M 16300,2.03725 H 2.03725 V 16300 H 16300 V 2.03725" /></g><g
         transform="scale(2.45429)"
         id="g18"><path
           id="path20"
           style="fill:none;stroke:#211d1d;stroke-width:4.07449007;stroke-linecap:butt;stroke-linejoin:miter;stroke-miterlimit:10;stroke-dasharray:none;stroke-opacity:1"
           d="M 16300,2.03725 H 2.03725 V 16300 H 16300 Z" /></g><g
         transform="scale(1.91435)"
         id="g22"><path
           id="path24"
           style="fill:#f1f1f1;fill-opacity:1;fill-rule:evenodd;stroke:none"
           d="m 6769.88,13160.7 c 582.65,817.5 269.59,2313.2 269.59,2313.2 -400.03,826.1 -1165.3,191.3 -1165.3,191.3 264.06,76.5 401.8,54.2 452.21,-260.9 -426.15,-530.5 130.44,-713.1 130.44,-713.1 191.29,-1643.5 -800.01,-1713 -800.01,-1713 391.26,-443.5 1113.07,182.5 1113.07,182.5" /></g><g
         transform="scale(1.91435)"
         id="g26"><path
           id="path28"
           style="fill:#f1f1f1;fill-opacity:1;fill-rule:evenodd;stroke:none"
           d="m 13857,15473.9 c 0,0 -313.1,-1495.7 269.6,-2313.2 0,0 721.7,-626 1113.1,-182.5 0,0 -991.4,69.5 -800.1,1713 0,0 556.5,182.6 130.5,713.1 50.4,315.1 188,337.4 452.1,260.9 0,0 -765.2,634.8 -1165.2,-191.3" /></g><g
         transform="scale(2.02669)"
         id="g30"><path
           id="path32"
           style="fill:#100f0d;fill-opacity:1;fill-rule:evenodd;stroke:none"
           d="m 8546.66,8702.08 c -361.43,533.93 -1026.75,689.99 -1026.75,689.99 303.89,-303.89 525.68,-944.59 525.68,-944.59 -295.7,418.91 -1503.14,1067.8 -1503.14,1067.8 -1719.94,732.82 -982.05,1972.02 312.13,2735.22 16.39,-402.4 -131.44,-640.7 -131.44,-640.7 1281.4,1191 320.37,3351.3 320.37,3351.3 970.01,-179.6 1048.56,-819.2 2825.55,-772.1 1776.94,-47.1 1855.54,592.5 2825.64,772.1 0,0 -961.1,-2160.3 320.3,-3351.3 0,0 -147.8,238.3 -131.5,640.7 1294.3,-763.2 2032.2,-2002.4 312.2,-2735.22 0,0 -1207.5,-648.89 -1503.2,-1067.8 0,0 221.9,640.7 525.8,944.59 0,0 -665.4,-156.06 -1026.8,-689.99 0,0 -90.3,-459.96 -1322.44,-369.62 -1232.11,-90.34 -1322.4,369.62 -1322.4,369.62 z M 7996.3,14985.8 c 0,0 -2086.36,1314.2 -2792.74,-377.9 0,0 -788.55,-2414.9 164.26,-2907.7 0,0 -574.97,-920 -213.55,-1708.53 -1534.97,-216.9 -1595.3,-1928.91 -82.15,-1839.89 0,0 1281.35,0 722.85,-673.57 -391.23,-34.34 -736.62,113.59 -1073.3,-140.57 -187.16,-141.32 -354.87,-401.4 -290.23,-877.94 0,0 139.64,-813.19 1117.07,-287.51 0,0 -172.45,-887.11 492.83,-1108.9 0,0 731.09,-197.12 1338.93,427.15 0,0 443.53,-328.57 870.68,-123.21 0,0 624.27,238.17 246.41,1864.57 751.53,-255.89 1991.94,-255.89 2743.44,0 -377.9,-1626.4 246.4,-1864.57 246.4,-1864.57 427.2,-205.36 870.7,123.21 870.7,123.21 607.8,-624.27 1338.8,-427.15 1338.8,-427.15 665.4,221.79 492.9,1108.9 492.9,1108.9 977.5,-525.68 1117.1,287.51 1117.1,287.51 64.6,476.54 -103.1,736.62 -290.3,877.94 -336.7,254.16 -682,106.23 -1073.2,140.57 -558.6,673.57 722.8,673.57 722.8,673.57 1513.2,-89.02 1452.8,1622.99 -82.1,1839.89 361.4,788.53 -213.6,1708.53 -213.6,1708.53 952.8,492.8 164.3,2907.7 164.3,2907.7 -706.4,1692.1 -2792.7,377.9 -2792.7,377.9 -954.6,-519.2 -2791.04,-519.2 -3745.6,0 z m 4123.4,-7006.52 c -279.3,-1478.52 607.8,-2217.81 607.8,-2217.81 517.5,-525.68 969.2,-139.64 969.2,-139.64 279.4,402.53 -156,862.49 -156,862.49 -1026.7,657.14 -796.8,1733.13 -796.8,1733.13 205.4,-1503.14 1659.3,-1839.9 1659.3,-1839.9 665.2,-205.46 1060.9,920.47 -484.7,887.11 -312.1,139.64 -394.2,476.4 -394.2,476.4 -254.7,681.75 813.1,928.16 813.1,928.16 377.9,98.58 460,238.22 460,238.22 131.5,-295.7 -188.9,-443.53 -188.9,-443.53 1119.1,57.09 895.5,969.22 181.2,1094.3 -737.6,129.17 -2473.5,-795.49 -2670,-1578.93 z m 969.2,6636.92 c 0,0 -295.7,-1412.8 254.6,-2185 0,0 681.8,-591.3 1051.4,-172.4 0,0 -936.4,65.6 -755.6,1618.1 0,0 525.6,172.5 123.2,673.5 47.6,297.6 177.6,318.7 427.1,246.5 0,0 -722.8,599.6 -1100.7,-180.7 z m -1347,-7474.74 c -360.2,-387.68 -457.4,-1574.79 254.5,-1191.06 -164.2,197.17 -254.5,1191.06 -254.5,1191.06 z M 7618.44,7979.28 C 7897.76,6500.76 7010.6,5761.47 7010.6,5761.47 c -517.44,-525.68 -969.22,-139.64 -969.22,-139.64 -279.27,402.53 156.07,862.49 156.07,862.49 1026.75,657.14 796.72,1733.13 796.72,1733.13 -205.31,-1503.14 -1659.16,-1839.9 -1659.16,-1839.9 -665.22,-205.46 -1060.92,920.47 484.63,887.11 312.09,139.64 394.24,476.4 394.24,476.4 254.65,681.75 -813.2,928.16 -813.2,928.16 -377.8,98.58 -459.96,238.22 -459.96,238.22 -131.44,-295.7 188.93,-443.53 188.93,-443.53 -1119.11,57.09 -895.53,969.22 -181.28,1094.3 737.66,129.17 2473.64,-795.49 2670.07,-1578.93 z m -969.17,6636.92 c 0,0 295.71,-1412.8 -254.65,-2185 0,0 -681.8,-591.3 -1051.37,-172.4 0,0 936.36,65.6 755.67,1618.1 0,0 -525.74,172.5 -123.21,673.5 -47.61,297.6 -177.73,318.7 -427.15,246.5 0,0 722.86,599.6 1100.71,-180.7 z M 7996.3,7141.46 c 360.09,-387.68 457.35,-1574.79 -254.6,-1191.06 164.3,197.17 254.6,1191.06 254.6,1191.06" /></g><g
         transform="scale(1.65501)"
         id="g34"><path
           id="path36"
           style="fill:#100f0d;fill-opacity:1;fill-rule:evenodd;stroke:none"
           d="m 7870.97,12980 c 0,0 1206.94,1066.2 4214.53,1066.2 3007.6,0 4214.5,-1066.2 4214.5,-1066.2 -905.3,1569.1 -4214.5,1549 -4214.5,1549 0,0 -3309.28,20.1 -4214.53,-1549" /></g></g></g></svg>