<?xml version="1.0" encoding="UTF-8" standalone="no"?>
<svg
   xmlns:dc="http://purl.org/dc/elements/1.1/"
   xmlns:cc="http://creativecommons.org/ns#"
   xmlns:rdf="http://www.w3.org/1999/02/22-rdf-syntax-ns#"
   xmlns:svg="http://www.w3.org/2000/svg"
   xmlns="http://www.w3.org/2000/svg"
   viewBox="0 0 5334.6665 5334.6665"
   height="5334.6665"
   width="5334.6665"
   xml:space="preserve"
   id="svg2"
   version="1.1"><metadata
     id="metadata8"><rdf:RDF><cc:Work
         rdf:about=""><dc:format>image/svg+xml</dc:format><dc:type
           rdf:resource="http://purl.org/dc/dcmitype/StillImage" /></cc:Work></rdf:RDF></metadata><defs
     id="defs6" /><g
     transform="matrix(1.3333333,0,0,-1.3333333,0,5334.6667)"
     id="g10"><g
       transform="scale(0.1)"
       id="g12"><g
         transform="scale(2.45429)"
         id="g14"><path
           id="path16"
           style="fill:#ffffff;fill-opacity:1;fill-rule:nonzero;stroke:none"
           d="M 16300,2.03725 H 2.03725 V 16300 H 16300 V 2.03725" /></g><g
         transform="scale(2.45429)"
         id="g18"><path
           id="path20"
           style="fill:none;stroke:#211d1d;stroke-width:4.07449007;stroke-linecap:butt;stroke-linejoin:miter;stroke-miterlimit:10;stroke-dasharray:none;stroke-opacity:1"
           d="M 16300,2.03725 H 2.03725 V 16300 H 16300 Z" /></g><g
         transform="scale(2.03938)"
         id="g22"><path
           id="path24"
           style="fill:#100f0d;fill-opacity:1;fill-rule:evenodd;stroke:none"
           d="m 7391.3,6007.06 c -0.44,25.55 2.45,39.77 2.45,39.77 -0.98,-13.34 -1.76,-26.63 -2.45,-39.77 z m 4832.6,0 c 0.4,25.55 -2.4,39.77 -2.4,39.77 1,-13.34 1.8,-26.63 2.4,-39.77 z M 9807.62,12439 c 0,0 2372.88,1078 3005.68,3327.8 0,0 621.1,-867.1 597.6,-1663.9 0,0 -105.5,246 -398.4,468.7 0,0 -292.9,-1628.8 -1464.7,-2390.5 0,0 2659.9,-2132.6 621,-4382.47 0,0 -644.5,-462.84 -1031.2,-1294.8 0,0 -46.8,228.5 -257.7,374.96 0,0 234.3,-1060.46 -222.7,-1394.44 0,0 -503.9,-351.53 -744.11,11.72 -145.83,230.27 435.11,445.72 520.41,896.2 39.1,206.24 46.9,503.54 -16.5,931.8 0,0 -0.1,-790.97 -609.38,-790.97 -609.3,0 -609.35,790.97 -609.35,790.97 -63.35,-428.26 -55.61,-725.56 -16.53,-931.8 85.32,-450.48 666.28,-665.93 520.41,-896.2 -240.22,-363.25 -744.1,-11.72 -744.1,-11.72 -456.95,333.98 -222.62,1394.44 -222.62,1394.44 -210.9,-146.46 -257.82,-374.96 -257.82,-374.96 -386.69,831.96 -1031.15,1294.8 -1031.15,1294.8 -2038.9,2249.87 621.07,4382.47 621.07,4382.47 -1171.77,761.7 -1464.75,2390.5 -1464.75,2390.5 -292.93,-222.7 -398.46,-468.7 -398.46,-468.7 -23.38,796.8 597.64,1663.9 597.64,1663.9 C 7434.74,13517 9807.62,12439 9807.62,12439 Z m 0,-7177.31 c 0,0 112.83,-159.66 352.98,-159.66 0,0 -77.6,-150.88 -352.98,-156.71 -275.33,5.83 -353,156.71 -353,156.71 240.22,0 353,159.66 353,159.66 z m 0,-457 c 468.68,0 585.88,234.38 585.88,234.38 744.1,128.91 832,890.56 832,890.56 199.2,281.26 597.6,527.32 597.6,527.32 140.6,-667.95 -304.6,-1206.93 -304.6,-1206.93 639,314.75 703.6,645.04 705.4,757.04 67.6,-1316.13 -1115.5,-1729.64 -1115.5,-1729.64 -703.2,-128.91 -1300.78,-433.56 -1300.78,-433.56 0,0 -597.63,304.65 -1300.69,433.56 0,0 -1183.15,413.51 -1115.63,1729.64 1.91,-112 66.44,-442.29 705.51,-757.04 0,0 -445.29,538.98 -304.65,1206.93 0,0 398.4,-246.06 597.58,-527.32 0,0 87.87,-761.65 832.02,-890.56 0,0 117.14,-234.38 585.86,-234.38 z m 0,-1488.15 c 1445.28,259.83 3923.98,1021.44 2835.68,4183.27 1535.1,1757.69 539.1,3749.79 539.1,3749.79 1828,3210.7 -457,5050.4 -457,5050.4 -820.2,-2226.4 -2917.78,-3491.9 -2917.78,-3491.9 0,0 -2097.5,1265.5 -2917.75,3491.9 0,0 -2284.99,-1839.7 -457,-5050.4 0,0 -996.03,-1992.1 539.04,-3749.79 C 5883.64,4337.93 8210.03,3658.41 9807.62,3316.54" /></g><g
         transform="scale(1.28067)"
         id="g26"><path
           id="path28"
           style="fill:#100f0d;fill-opacity:1;fill-rule:evenodd;stroke:none"
           d="m 13940.9,14583.3 c 521.2,-215.3 506.8,-830.1 606.4,-1334.2 0,0 335.9,2985.6 -1296.9,3050.9 0,0 420,-345.2 541.2,-671.8 0,0 -690.4,270.6 -1324.9,121.3 0,0 -139.9,-634.4 587.9,-905 0,0 -247.3,135.7 -270.6,541.2 0,0 883.2,157.6 1334.2,-531.8 0,0 -345.2,-84 -755.7,-65.4 0,0 233.2,-177.2 578.4,-205.2" /></g><g
         transform="scale(1.48567)"
         id="g30"><path
           id="path32"
           style="fill:#100f0d;fill-opacity:1;fill-rule:evenodd;stroke:none"
           d="m 14908.6,12571.1 c -449.3,-185.6 -436.9,-715.6 -522.8,-1150.1 0,0 -289.5,2573.6 1118,2629.9 0,0 -361.9,-297.6 -466.5,-579.1 0,0 595.2,233.3 1142.1,104.6 0,0 120.6,-546.9 -506.7,-780.1 0,0 213.1,116.9 233.2,466.5 0,0 -761.3,135.8 -1150.1,-458.5 0,0 297.6,-72.4 651.5,-56.3 0,0 -201.1,-152.8 -498.7,-176.9" /></g></g></g></svg>