<?xml version="1.0" encoding="UTF-8" standalone="no"?>
<svg
   xmlns:dc="http://purl.org/dc/elements/1.1/"
   xmlns:cc="http://creativecommons.org/ns#"
   xmlns:rdf="http://www.w3.org/1999/02/22-rdf-syntax-ns#"
   xmlns:svg="http://www.w3.org/2000/svg"
   xmlns="http://www.w3.org/2000/svg"
   viewBox="0 0 5334.6665 5334.6665"
   height="5334.6665"
   width="5334.6665"
   xml:space="preserve"
   id="svg2"
   version="1.1"><metadata
     id="metadata8"><rdf:RDF><cc:Work
         rdf:about=""><dc:format>image/svg+xml</dc:format><dc:type
           rdf:resource="http://purl.org/dc/dcmitype/StillImage" /></cc:Work></rdf:RDF></metadata><defs
     id="defs6" /><g
     transform="matrix(1.3333333,0,0,-1.3333333,0,5334.6667)"
     id="g10"><g
       transform="scale(0.1)"
       id="g12"><g
         transform="scale(2.45429)"
         id="g14"><path
           id="path16"
           style="fill:#ffffff;fill-opacity:1;fill-rule:nonzero;stroke:none"
           d="M 16300,2.03725 H 2.03725 V 16300 H 16300 V 2.03725" /></g><g
         transform="scale(2.45429)"
         id="g18"><path
           id="path20"
           style="fill:none;stroke:#211d1d;stroke-width:4.07449007;stroke-linecap:butt;stroke-linejoin:miter;stroke-miterlimit:10;stroke-dasharray:none;stroke-opacity:1"
           d="M 16300,2.03725 H 2.03725 V 16300 H 16300 Z" /></g><g
         transform="scale(1.12566)"
         id="g22"><path
           id="path24"
           style="fill:#100f0d;fill-opacity:1;fill-rule:evenodd;stroke:none"
           d="m 15041.6,16300 c 0,0 -167.3,-1288.5 600.4,-1473.7 -300.2,-38.3 -863.1,-56.4 -957.9,632.3 -95,688.7 50.9,683.4 50.9,683.4 l 159.8,153.2 146.8,4.8" /></g><g
         transform="scale(1.08895)"
         id="g26"><path
           id="path28"
           style="fill:#100f0d;fill-opacity:1;fill-rule:evenodd;stroke:none"
           d="m 15246.8,15887.4 c 0,0 239.1,-1321.6 1053.2,-1263.5 -283.7,-131.8 -832.4,-326.1 -1141.7,322.6 -309.4,648.6 -163.9,689.1 -163.9,689.1 l 109.2,201 143.2,50.8" /></g><g
         transform="scale(1.10433)"
         id="g30"><path
           id="path32"
           style="fill:#100f0d;fill-opacity:1;fill-rule:evenodd;stroke:none"
           d="m 14908,14785.7 c 0,0 653.2,-1152.1 1392,-832.7 -221.1,-215.1 -668.6,-574.8 -1167.8,-71.9 -499.2,502.9 -377,588 -377,588 l 36.1,222.7 116.7,93.9" /></g><g
         transform="scale(1.44667)"
         id="g34"><path
           id="path36"
           style="fill:#100f0d;fill-opacity:1;fill-rule:evenodd;stroke:none"
           d="m 15947.9,12683.1 c 0,0 130.1,-1002.6 -467.2,-1146.7 233.7,-29.8 671.6,-43.9 745.4,492 73.9,535.8 -39.7,531.7 -39.7,531.7 l -124.3,119.2 -114.2,3.8" /></g><g
         transform="scale(1.46217)"
         id="g38"><path
           id="path40"
           style="fill:#100f0d;fill-opacity:1;fill-rule:evenodd;stroke:none"
           d="m 16003.7,11832.2 c 0,0 -178.1,-984.3 -784.4,-941 211.2,-98.2 619.9,-242.9 850.3,240.2 230.4,483.1 122.1,513.2 122.1,513.2 l -81.4,149.8 -106.6,37.8" /></g><g
         transform="scale(1.46279)"
         id="g42"><path
           id="path44"
           style="fill:#100f0d;fill-opacity:1;fill-rule:evenodd;stroke:none"
           d="m 16092.4,11162.4 c 0,0 -493.2,-869.8 -1051,-628.7 167,-162.4 504.8,-433.9 881.7,-54.2 376.9,379.6 284.6,443.9 284.6,443.9 l -27.3,168.1 -88,70.9" /></g><g
         transform="scale(1.48345)"
         id="g46"><path
           id="path48"
           style="fill:#100f0d;fill-opacity:1;fill-rule:evenodd;stroke:none"
           d="m 10803.2,15578 c 0,0 1012.7,164.7 1192.1,-436.2 0,0 -188.1,-129.9 -542.8,-116.3 0,0 154.9,-97.8 358.8,-134.8 309.9,-56.1 319.4,-322.2 373,-567.9 0,0 552.4,1977.2 -1105,1841.6 0,0 189.1,-130.9 305.3,-290.8 0,0 -663.9,-92.1 -998.2,87.2 0,0 -92.1,-794.8 741.4,-949.8 0,0 -276.2,237.4 -324.6,567" /></g><g
         transform="scale(1.55447)"
         id="g50"><path
           id="path52"
           style="fill:#100f0d;fill-opacity:1;fill-rule:evenodd;stroke:none"
           d="m 12306,15965.1 c 6.8,-2.3 13.5,-4.8 20,-7.3 0,0 -7.8,1.8 -20,7.3 z m 1122.3,0 c -6.8,-2.3 -13.5,-4.8 -20.1,-7.3 0,0 7.8,1.8 20.1,7.3 z m 840.1,-76.8 c -812.2,126.4 -866,-474.8 -1401.3,-439.8 -535.3,-35 -589.1,566.2 -1401.3,439.8 0,0 531.4,181.7 840.2,76.8 -46.6,21.1 -158.4,96.6 -151.1,334.9 0,0 360.8,-370 712.2,-360.8 351.5,-9.2 712.3,360.8 712.3,360.8 7.3,-238.3 -104.5,-313.8 -151.1,-334.9 308.7,104.9 840.1,-76.8 840.1,-76.8" /></g><g
         transform="scale(1.51729)"
         id="g54"><path
           id="path56"
           style="fill:#100f0d;fill-opacity:1;fill-rule:evenodd;stroke:none"
           d="m 15802.5,15230.5 c 0,0 -990.2,161.1 -1165.6,-426.5 0,0 184,-127 530.7,-113.6 0,0 -151.4,-95.7 -350.8,-131.8 -302.9,-54.8 -312.2,-315 -364.6,-555.3 0,0 -540.1,1933.2 1080.3,1800.6 0,0 -184.9,-128 -298.5,-284.4 0,0 649.1,-90 976,85.3 0,0 90,-777 -724.9,-928.6 0,0 270,232.1 317.4,554.3" /></g><g
         transform="scale(1.95008)"
         id="g58"><path
           id="path60"
           style="fill:#100f0d;fill-opacity:1;fill-rule:evenodd;stroke:none"
           d="m 8680.37,7772.26 c -320.75,578.49 42.82,1788.8 42.82,1788.8 -258.04,-162.2 -368.65,-317.07 -368.65,-317.07 -353.88,339.17 -553,1356.71 -553,1356.71 -184.3,-1010.16 169.63,-1629.47 169.63,-1629.47 -1681.06,2034.97 -110.61,4888.27 -110.61,4888.27 l -1039.6,943.8 c -412.91,184.3 -575.1,-442.4 -575.1,-442.4 -235.94,707.8 44.25,1511.5 44.25,1511.5 1083.8,-243.3 1946.49,-1224 1946.49,-1224 635.82,389.4 1328,584.1 2020.2,584.1 692.2,0 1384.4,-194.7 2020.2,-584.1 0,0 862.6,980.7 1946.4,1224 0,0 280.3,-803.7 44.3,-1511.5 0,0 -162.2,626.7 -575.1,442.4 L 12653,13859.5 c 0,0 1570.4,-2853.3 -110.6,-4888.27 0,0 353.9,619.31 169.6,1629.47 0,0 -199.1,-1017.54 -552.9,-1356.71 0,0 -110.7,154.87 -368.7,317.07 0,0 363.5,-1210.31 42.8,-1788.8 -314.3,-566.8 -1465.2,-81.74 -1340.4,210.96 0,0 1150.1,516.08 457,1975.98 0,0 76.4,-522.19 13.5,-841.72 -63.1,-320.14 -342.4,-349.83 -706.5,-345.37 -364.12,-4.46 -643.39,25.23 -706.46,345.37 -63.02,319.53 13.38,841.72 13.38,841.72 -693.1,-1459.9 457.08,-1975.98 457.08,-1975.98 124.7,-292.7 -1026.13,-777.76 -1340.43,-210.96 z m 1576.43,7930.14 c -738.51,0 -1476.94,-157.1 -1917.03,-471.5 0,0 -1061.7,1069.1 -2374.11,1010.1 0,0 -921.58,-2676.4 877.4,-4106.8 0,0 -95.84,-1496.7 -7.38,-2433.05 L 6095.6,6198.22 c 1000.78,-1178.98 2493.6,-1927.16 4161.2,-1927.16 1667.5,0 3160.4,748.18 4161.2,1927.16 l -740.1,3502.93 c 88.4,936.35 -7.4,2433.05 -7.4,2433.05 1799,1430.4 877.4,4106.8 877.4,4106.8 -1312.4,59 -2374.1,-1010.1 -2374.1,-1010.1 -440.1,314.4 -1178.5,471.5 -1917,471.5 z m 0,-11361.44 c -3140.93,744.69 -3236.82,2410.98 -3236.82,2410.98 -88.46,398.14 162.25,1422.97 162.25,1422.97 36.87,-973.25 670.89,-1238.67 670.89,-1238.67 -257.98,538.23 -51.58,1135.44 -51.58,1135.44 294.91,368.7 486.64,-14.72 486.64,-14.72 103.23,-781.56 707.77,-862.63 707.77,-862.63 270.86,-495.93 765.82,-743.92 1260.85,-743.92 495,0 990,247.99 1260.8,743.92 0,0 604.6,81.07 707.8,862.63 0,0 191.7,383.42 486.6,14.72 0,0 206.5,-597.21 -51.6,-1135.44 0,0 634,265.42 670.9,1238.67 0,0 250.7,-1024.83 162.3,-1422.97 0,0 -95.9,-1666.29 -3236.8,-2410.98 z m 0,2469.95 c -471.91,29.49 -781.54,427.62 -781.54,427.62 287.53,-7.33 781.54,339.17 781.54,339.17 0,0 494,-346.5 781.5,-339.17 0,0 -309.6,-398.13 -781.5,-427.62" /></g></g></g></svg>