<?xml version="1.0" encoding="UTF-8" standalone="no"?>
<svg
   xmlns:dc="http://purl.org/dc/elements/1.1/"
   xmlns:cc="http://creativecommons.org/ns#"
   xmlns:rdf="http://www.w3.org/1999/02/22-rdf-syntax-ns#"
   xmlns:svg="http://www.w3.org/2000/svg"
   xmlns="http://www.w3.org/2000/svg"
   viewBox="0 0 5334.6665 5334.6665"
   height="5334.6665"
   width="5334.6665"
   xml:space="preserve"
   id="svg2"
   version="1.1"><metadata
     id="metadata8"><rdf:RDF><cc:Work
         rdf:about=""><dc:format>image/svg+xml</dc:format><dc:type
           rdf:resource="http://purl.org/dc/dcmitype/StillImage" /></cc:Work></rdf:RDF></metadata><defs
     id="defs6" /><g
     transform="matrix(1.3333333,0,0,-1.3333333,0,5334.6667)"
     id="g10"><g
       transform="scale(0.1)"
       id="g12"><g
         transform="scale(2.45429)"
         id="g14"><path
           id="path16"
           style="fill:#ffffff;fill-opacity:1;fill-rule:nonzero;stroke:none"
           d="M 16300,2.03725 H 2.03725 V 16300 H 16300 V 2.03725" /></g><g
         transform="scale(2.45429)"
         id="g18"><path
           id="path20"
           style="fill:none;stroke:#211d1d;stroke-width:4.07449007;stroke-linecap:butt;stroke-linejoin:miter;stroke-miterlimit:10;stroke-dasharray:none;stroke-opacity:1"
           d="M 16300,2.03725 H 2.03725 V 16300 H 16300 Z" /></g><g
         transform="scale(1.96262)"
         id="g22"><path
           id="path24"
           style="fill:#100f0d;fill-opacity:1;fill-rule:evenodd;stroke:none"
           d="m 9264.34,10381.4 c -167.22,227.9 -991.89,90.2 -1004.42,461.2 343.37,216.9 1154.17,312.5 1004.42,-461.2 z m 1853.76,0 c 167.2,227.9 991.9,90.2 1004.4,461.2 -343.3,216.9 -1154.2,312.5 -1004.4,-461.2 z m -926.9,3935.6 c 0,0 1189.8,25.9 1819.2,-1094.9 0,0 34.5,456.9 -284.5,913.9 0,0 741.5,1327.7 2526.1,1724.3 0,0 336.2,-638 241.4,-1595 0,0 -103.5,586.3 -370.8,836.3 0,0 -1103.5,-275.9 -1594.9,-1698.4 0,0 2294.6,-983.4 2388.1,-3259 0,0 -172.4,258.7 -706.9,396.6 0,0 577.6,-1172.52 396.6,-2146.72 0,0 -1508.8,431.05 -1801.9,1482.86 0,0 370.7,-94.82 603.5,-370.68 0,0 -569,1862.24 -2026.1,1965.64 0,0 -793.1,-43.1 -500,-1362.2 0,0 1543.2,-1250.07 715.6,-2189.83 0,0 -396.6,-344.8 -1198.4,-163.77 60.1,536.02 543.7,432.13 543.9,1142.4 0,144.5 -48.4,339.45 -190.5,495.67 184.6,-570.46 -135.3,-635.84 -560.4,-698.35 -425.08,62.51 -745.01,127.89 -560.46,698.35 -142.01,-156.22 -190.46,-351.17 -190.41,-495.67 0.2,-710.27 483.84,-606.38 543.92,-1142.4 -801.79,-181.03 -1198.4,163.77 -1198.4,163.77 -827.67,939.76 715.57,2189.83 715.57,2189.83 293.18,1319.1 -500.04,1362.2 -500.04,1362.2 -1457.03,-103.4 -2026.02,-1965.64 -2026.02,-1965.64 232.8,275.86 603.53,370.68 603.53,370.68 C 7285.71,8825.13 5776.97,8394.08 5776.97,8394.08 c -181.04,974.2 396.61,2146.72 396.61,2146.72 -534.54,-137.9 -706.96,-396.6 -706.96,-396.6 93.49,2275.6 2388.13,3259 2388.13,3259 -491.39,1422.5 -1594.96,1698.4 -1594.96,1698.4 -267.25,-250 -370.73,-836.3 -370.73,-836.3 -94.82,957 241.41,1595 241.41,1595 1784.65,-396.6 2526.06,-1724.3 2526.06,-1724.3 -318.96,-457 -284.47,-913.9 -284.47,-913.9 629.32,1120.8 1819.14,1094.9 1819.14,1094.9 z m 0,-6819.48 c 0,0 332,-146.59 659.7,-137.93 0,0 -103.7,-293.13 -659.7,-370.73 -555.98,77.6 -659.62,370.73 -659.62,370.73 327.63,-8.66 659.62,137.93 659.62,137.93 z m 0,-810.45 c 0,0 679.6,-45.24 1064.8,620.76 0,0 560.4,146.58 732.9,370.72 0,0 1646.7,-362.11 1560.4,-2103.61 0,0 526,655.25 267.3,1586.35 0,0 899.5,-1539.22 14.2,-3077.52 398.7,280.85 763.6,606.54 1087.2,969.83 272.3,1538.45 -674.7,2823.26 -674.7,2823.26 293.1,-25.88 706.9,-250.02 706.9,-250.02 362.1,1344.93 17.3,2120.89 17.3,2120.89 215.5,-68.99 362.1,-181.09 362.1,-181.09 344.8,1586.36 -741.5,3103.66 -741.5,3103.66 879.4,1965.7 -112.1,3629.7 -112.1,3629.7 -1982.9,-181 -3164,-1922.6 -3164,-1922.6 -672.5,310.4 -1120.8,301.8 -1120.8,301.8 0,0 -448.32,8.6 -1120.78,-301.8 0,0 -1181.13,1741.6 -3164.04,1922.6 0,0 -991.49,-1664 -112.09,-3629.7 0,0 -1086.28,-1517.3 -741.43,-3103.66 0,0 146.56,112.1 362.09,181.09 0,0 -344.83,-775.96 17.27,-2120.89 0,0 413.84,224.14 706.91,250.02 0,0 -947,-1284.81 -674.71,-2823.26 323.6,-363.34 688.52,-688.98 1087.22,-969.83 -885.39,1538.3 14.17,3077.52 14.17,3077.52 -258.59,-931.1 267.29,-1586.35 267.29,-1586.35 -86.21,1741.5 1560.47,2103.61 1560.47,2103.61 172.42,-224.14 732.79,-370.72 732.79,-370.72 385.2,-666 1064.84,-620.76 1064.84,-620.76" /></g></g></g></svg>