<?xml version="1.0" encoding="UTF-8"?>
<svg xmlns="http://www.w3.org/2000/svg" xmlns:xlink="http://www.w3.org/1999/xlink" width="4001pt" height="4001pt" viewBox="0 0 4001 4001" version="1.1">
<g id="surface1">
<path style=" stroke:none;fill-rule:nonzero;fill:rgb(100%,100%,100%);fill-opacity:1;" d="M 4000.5 4000.5 L 0.5 4000.5 L 0.5 0.5 L 4000.5 0.5 L 4000.5 4000.5 "/>
<path style="fill:none;stroke-width:10;stroke-linecap:butt;stroke-linejoin:miter;stroke:rgb(13.299561%,12.199402%,12.5%);stroke-opacity:1;stroke-miterlimit:10;" d="M 40005 5 L 5 5 L 5 40005 L 40005 40005 Z M 40005 5 " transform="matrix(0.1,0,0,-0.1,0,4001)"/>
<path style=" stroke:none;fill-rule:evenodd;fill:rgb(0.799561%,0.799561%,0.799561%);fill-opacity:1;" d="M 1595.449219 1947.269531 C 1644.058594 1995.878906 1722.871094 1995.878906 1771.480469 1947.269531 C 1820.078125 1898.671875 1820.078125 1819.859375 1771.480469 1771.25 C 1743.480469 1743.25 1705.46875 1731.378906 1668.980469 1735.628906 C 1686.261719 1759.929688 1684 1793.859375 1662.210938 1815.648438 C 1637.910156 1839.960938 1598.511719 1839.960938 1574.199219 1815.648438 C 1572.378906 1813.828125 1570.691406 1811.921875 1569.140625 1809.949219 C 1549.550781 1855.398438 1558.320313 1910.148438 1595.449219 1947.269531 "/>
<path style=" stroke:none;fill-rule:evenodd;fill:rgb(0.799561%,0.799561%,0.799561%);fill-opacity:1;" d="M 2000.148438 2046.308594 C 2000.148438 2046.308594 1823.960938 2038.21875 1906.410156 2136.828125 C 1906.410156 2136.828125 1992.078125 2195.03125 1974.300781 2262.921875 C 1932.03125 2304.300781 1872.898438 2299.480469 1833.851563 2256.949219 C 1820.410156 2242.320313 1809.71875 2230.390625 1792.019531 2242.671875 C 1768.730469 2258.839844 1790.910156 2289.460938 1819.730469 2312.648438 C 1879.960938 2361.109375 1936.28125 2351.609375 2000.148438 2309.800781 C 2064.019531 2351.609375 2120.339844 2361.109375 2180.570313 2312.648438 C 2209.390625 2289.460938 2231.578125 2258.839844 2208.28125 2242.671875 C 2190.578125 2230.390625 2179.890625 2242.320313 2166.449219 2256.949219 C 2127.398438 2299.480469 2068.269531 2304.300781 2026.011719 2262.921875 C 2008.21875 2195.03125 2093.890625 2136.828125 2093.890625 2136.828125 C 2176.339844 2038.21875 2000.148438 2046.308594 2000.148438 2046.308594 "/>
<path style=" stroke:none;fill-rule:evenodd;fill:rgb(0.799561%,0.799561%,0.799561%);fill-opacity:1;" d="M 2000.148438 1624.390625 C 2000.148438 1624.390625 1891.839844 1614.699219 1849.808594 1543.570313 C 1849.808594 1543.570313 1675.230469 1585.601563 1634.820313 1406.171875 C 1634.820313 1406.171875 1209.679688 1585.589844 1452.160156 2047.921875 C 1452.160156 2047.921875 1583.089844 2352.359375 1791.628906 2406.78125 C 1791.628906 2406.78125 1875.679688 2510.238281 2000.148438 2510.238281 C 2124.621094 2510.238281 2208.679688 2406.78125 2208.679688 2406.78125 C 2417.210938 2352.359375 2548.140625 2047.921875 2548.140625 2047.921875 C 2790.621094 1585.589844 2365.480469 1406.171875 2365.480469 1406.171875 C 2325.070313 1585.601563 2150.488281 1543.570313 2150.488281 1543.570313 C 2108.460938 1614.699219 2000.148438 1624.390625 2000.148438 1624.390625 Z M 2000.148438 2604 C 1811.019531 2604 1739.898438 2494.070313 1739.898438 2494.070313 C 1259.609375 2368.78125 1426.289063 1838.75 1141.789063 1653.488281 C 1141.789063 1653.488281 889.617188 1886.269531 1035.101563 2164.308594 C 1035.101563 2164.308594 1078.070313 2289.199219 1345.46875 2290.398438 C 1345.46875 2290.398438 1264.640625 2359.910156 1195.140625 2361.53125 C 1195.140625 2361.53125 1072.28125 2851.328125 1689.789063 2699.378906 C 1689.789063 2699.378906 1654.21875 2785.058594 1620.28125 2809.300781 C 1620.28125 2809.300781 1762.519531 2974.191406 2000.148438 2964.480469 C 2237.78125 2974.191406 2380.019531 2809.300781 2380.019531 2809.300781 C 2346.078125 2785.058594 2310.511719 2699.378906 2310.511719 2699.378906 C 2928.019531 2851.328125 2805.160156 2361.53125 2805.160156 2361.53125 C 2735.660156 2359.910156 2654.828125 2290.398438 2654.828125 2290.398438 C 2922.230469 2289.199219 2965.199219 2164.308594 2965.199219 2164.308594 C 3110.679688 1886.269531 2858.511719 1653.488281 2858.511719 1653.488281 C 2574.011719 1838.75 2740.691406 2368.78125 2260.398438 2494.070313 C 2260.398438 2494.070313 2189.289063 2604 2000.148438 2604 Z M 2000.148438 3148.761719 C 1657.449219 3155.230469 1499.03125 2873.960938 1499.03125 2873.960938 C 997.921875 2906.289063 1036.71875 2385.769531 1036.71875 2385.769531 C 600.257813 2010.738281 1051.25 1530.089844 1051.25 1530.089844 C 975.261719 1446.03125 968.816406 1267.140625 968.816406 1267.140625 C 1133.699219 1079.628906 1371.328125 1099.03125 1371.328125 1099.03125 C 1458.621094 803.210938 1741.511719 960.011719 1741.511719 960.011719 C 1809.179688 817.351563 2191.128906 817.351563 2258.789063 960.011719 C 2258.789063 960.011719 2541.691406 803.210938 2628.96875 1099.03125 C 2628.96875 1099.03125 2866.601563 1079.628906 3031.480469 1267.140625 C 3031.480469 1267.140625 3025.039063 1446.03125 2949.058594 1530.089844 C 2949.058594 1530.089844 3400.039063 2010.738281 2963.589844 2385.769531 C 2963.589844 2385.769531 3002.378906 2906.289063 2501.269531 2873.960938 C 2501.269531 2873.960938 2342.859375 3155.230469 2000.148438 3148.761719 Z M 1786.769531 1178.238281 C 1786.769531 1178.238281 1749.601563 1136.210938 1749.601563 1066.699219 C 1749.601563 1066.699219 1508.730469 913.128906 1460.238281 1124.890625 C 1460.238281 1124.890625 1610.570313 1134.601563 1675.230469 1318.878906 C 1675.230469 1318.878906 1707.558594 1441.730469 1807.789063 1472.441406 C 1807.789063 1472.441406 1760.910156 1411.019531 1790 1323.71875 C 1790 1323.71875 1844.96875 1508 2000.148438 1511.238281 C 2155.339844 1508 2210.289063 1323.71875 2210.289063 1323.71875 C 2239.390625 1411.019531 2192.511719 1472.441406 2192.511719 1472.441406 C 2292.730469 1441.730469 2325.070313 1318.878906 2325.070313 1318.878906 C 2389.730469 1134.601563 2540.070313 1124.890625 2540.070313 1124.890625 C 2491.570313 913.128906 2250.699219 1066.699219 2250.699219 1066.699219 C 2250.699219 1136.210938 2213.53125 1178.238281 2213.53125 1178.238281 C 2199.890625 872.488281 1800.410156 872.488281 1786.769531 1178.238281 Z M 2595.019531 1394.859375 C 2711.109375 1293.738281 2736.28125 1271.871094 2905.390625 1263.921875 C 2630.578125 1074.78125 2451.148438 1307.558594 2451.148438 1307.558594 C 2498.03125 1326.960938 2595.019531 1394.859375 2595.019531 1394.859375 Z M 1405.28125 1394.859375 C 1289.191406 1293.738281 1264.019531 1271.871094 1094.921875 1263.921875 C 1369.71875 1074.78125 1549.148438 1307.558594 1549.148438 1307.558594 C 1502.269531 1326.960938 1405.28125 1394.859375 1405.28125 1394.859375 "/>
<path style=" stroke:none;fill-rule:evenodd;fill:rgb(0.799561%,0.799561%,0.799561%);fill-opacity:1;" d="M 2401.75 1945.988281 C 2353.148438 1994.601563 2274.328125 1994.601563 2225.730469 1945.988281 C 2177.121094 1897.378906 2177.121094 1818.570313 2225.730469 1769.960938 C 2253.730469 1741.96875 2291.738281 1730.089844 2328.230469 1734.351563 C 2310.949219 1758.648438 2313.210938 1792.578125 2334.988281 1814.371094 C 2359.300781 1838.671875 2398.710938 1838.671875 2423 1814.371094 C 2424.828125 1812.550781 2426.511719 1810.640625 2428.058594 1808.671875 C 2447.648438 1854.109375 2438.890625 1908.859375 2401.75 1945.988281 "/>
</g>
</svg>
