<?xml version="1.0" encoding="UTF-8"?>
<svg xmlns="http://www.w3.org/2000/svg" xmlns:xlink="http://www.w3.org/1999/xlink" width="4001pt" height="4001pt" viewBox="0 0 4001 4001" version="1.1">
<g id="surface1">
<path style=" stroke:none;fill-rule:nonzero;fill:rgb(100%,100%,100%);fill-opacity:1;" d="M 4000.5 4000.5 L 0.5 4000.5 L 0.5 0.5 L 4000.5 0.5 L 4000.5 4000.5 "/>
<path style="fill:none;stroke-width:10;stroke-linecap:butt;stroke-linejoin:miter;stroke:rgb(13.299561%,12.199402%,12.5%);stroke-opacity:1;stroke-miterlimit:10;" d="M 40005 5 L 5 5 L 5 40005 L 40005 40005 Z M 40005 5 " transform="matrix(0.1,0,0,-0.1,0,4001)"/>
<path style=" stroke:none;fill-rule:evenodd;fill:rgb(100%,100%,100%);fill-opacity:1;" d="M 1879.101563 2094.75 C 1798.539063 2045.890625 1753.46875 2120.351563 1753.46875 2120.351563 C 1702.269531 2239.011719 1711.589844 2339.058594 1711.589844 2339.058594 C 1697.621094 2481 1939.609375 2415.851563 1939.609375 2415.851563 C 2028.019531 2336.730469 1881.441406 2252.96875 1881.441406 2252.96875 C 1786.039063 2145.941406 1879.101563 2094.75 1879.101563 2094.75 "/>
<path style=" stroke:none;fill-rule:evenodd;fill:rgb(100%,100%,100%);fill-opacity:1;" d="M 2121.199219 2094.75 C 2201.769531 2045.890625 2246.839844 2120.351563 2246.839844 2120.351563 C 2298.03125 2239.011719 2288.71875 2339.058594 2288.71875 2339.058594 C 2302.691406 2481 2060.699219 2415.851563 2060.699219 2415.851563 C 1972.28125 2336.730469 2118.871094 2252.96875 2118.871094 2252.96875 C 2214.261719 2145.941406 2121.199219 2094.75 2121.199219 2094.75 "/>
<path style=" stroke:none;fill-rule:evenodd;fill:rgb(0.799561%,0.799561%,0.799561%);fill-opacity:1;" d="M 1673.210938 2734.578125 C 1175.28125 2394.871094 1387.019531 1927.191406 1387.019531 1927.191406 C 1275.339844 1931.851563 1177.609375 1987.691406 1177.609375 1987.691406 C 1163.660156 1513.039063 1512.679688 1243.121094 1512.679688 1243.121094 C 1519.660156 984.839844 1356.789063 784.738281 1356.789063 784.738281 C 1196.238281 880.140625 1161.328125 1063.960938 1161.328125 1063.960938 C 1163.660156 752.171875 1403.320313 584.640625 1403.320313 584.640625 C 1696.488281 745.191406 1780.261719 1177.96875 1780.261719 1177.96875 C 1829.121094 968.558594 2000.148438 970.878906 2000.148438 970.878906 C 2000.148438 970.878906 2171.191406 968.558594 2220.050781 1177.96875 C 2220.050781 1177.96875 2303.820313 745.191406 2596.980469 584.640625 C 2596.980469 584.640625 2836.648438 752.171875 2838.96875 1063.960938 C 2838.96875 1063.960938 2804.070313 880.140625 2643.519531 784.738281 C 2643.519531 784.738281 2480.640625 984.839844 2487.621094 1243.121094 C 2487.621094 1243.121094 2836.648438 1513.039063 2822.691406 1987.691406 C 2822.691406 1987.691406 2724.96875 1931.851563 2613.28125 1927.191406 C 2613.28125 1927.191406 2825.03125 2394.871094 2327.101563 2734.578125 C 2327.101563 2734.578125 2287.539063 2660.128906 2199.121094 2629.878906 C 2199.121094 2629.878906 2210.699219 2829.980469 2000.148438 2946.320313 C 1789.609375 2829.980469 1801.179688 2629.878906 1801.179688 2629.878906 C 1712.769531 2660.128906 1673.210938 2734.578125 1673.210938 2734.578125 Z M 2000.148438 918.519531 C 2000.148438 918.519531 1903.589844 922.011719 1825.640625 962.730469 C 1825.640625 962.730469 1680.210938 619.53125 1391.699219 498.539063 C 1391.699219 498.539063 963.570313 745.179688 1126.449219 1396.671875 C 1126.449219 1396.671875 963.570313 1808.511719 1068.28125 2173.808594 C 1068.28125 2173.808594 1117.128906 2129.601563 1184.609375 2120.300781 C 1184.609375 2120.300781 949.605469 2476.300781 991.484375 2839.269531 C 991.484375 2839.269531 1051.96875 2788.089844 1135.738281 2774.128906 C 1135.738281 2774.128906 1031.570313 2961.449219 1074.980469 3131.378906 C 1283.511719 3331.070313 1556.539063 3463.921875 1859.671875 3495.558594 L 1447.511719 3311.621094 C 1033.351563 3120.828125 1307.921875 2653.148438 1307.921875 2653.148438 C 1207.351563 2634.269531 1114.789063 2650.828125 1114.789063 2650.828125 C 1149.691406 2534.488281 1247.410156 2406.519531 1247.410156 2406.519531 C 1307.921875 2634.539063 1687.179688 2946.328125 1687.179688 2946.328125 C 1698.808594 2885.828125 1750 2832.308594 1750 2832.308594 C 1786.539063 2980.609375 2000.148438 3118.5 2000.148438 3118.5 C 2000.148438 3118.5 2213.769531 2980.609375 2250.300781 2832.308594 C 2250.300781 2832.308594 2301.488281 2885.828125 2313.128906 2946.328125 C 2313.128906 2946.328125 2692.390625 2634.539063 2752.890625 2406.519531 C 2752.890625 2406.519531 2850.621094 2534.488281 2885.519531 2650.828125 C 2885.519531 2650.828125 2792.949219 2634.269531 2692.390625 2653.148438 C 2692.390625 2653.148438 2966.949219 3120.828125 2552.789063 3311.621094 L 2140.640625 3495.558594 C 2443.78125 3463.921875 2716.800781 3331.070313 2925.320313 3131.378906 C 2968.738281 2961.449219 2864.558594 2774.128906 2864.558594 2774.128906 C 2948.328125 2788.089844 3008.820313 2839.269531 3008.820313 2839.269531 C 3050.699219 2476.300781 2815.691406 2120.300781 2815.691406 2120.300781 C 2883.171875 2129.601563 2932.03125 2173.808594 2932.03125 2173.808594 C 3036.730469 1808.511719 2873.859375 1396.671875 2873.859375 1396.671875 C 3036.730469 745.179688 2608.601563 498.539063 2608.601563 498.539063 C 2320.089844 619.53125 2174.671875 962.730469 2174.671875 962.730469 C 2096.71875 922.011719 2000.148438 918.519531 2000.148438 918.519531 "/>
<path style=" stroke:none;fill-rule:evenodd;fill:rgb(0.799561%,0.799561%,0.799561%);fill-opacity:1;" d="M 1838.980469 1935.941406 C 1804.238281 1828.980469 1830.730469 1685.570313 1896.570313 1596.808594 C 1896.570313 1596.808594 1823.859375 1614.839844 1806.410156 1646.25 C 1806.410156 1646.25 1688.910156 1497.351563 1507.421875 1609.03125 C 1507.421875 1609.03125 1613.28125 1634.628906 1638.878906 1699.769531 C 1638.878906 1699.769531 1647.03125 1640.441406 1637.71875 1618.328125 C 1637.71875 1618.328125 1752.890625 1643.929688 1777.320313 1720.71875 C 1777.320313 1720.71875 1713.328125 1732.351563 1676.109375 1716.058594 C 1676.109375 1716.058594 1700.398438 1757.96875 1765.691406 1764.921875 C 1767.730469 1815.851563 1786.558594 1914.980469 1838.980469 1935.941406 "/>
<path style=" stroke:none;fill-rule:evenodd;fill:rgb(0.799561%,0.799561%,0.799561%);fill-opacity:1;" d="M 2161.339844 1935.941406 C 2196.070313 1828.980469 2169.589844 1685.570313 2103.730469 1596.808594 C 2103.730469 1596.808594 2176.449219 1614.839844 2193.898438 1646.25 C 2193.898438 1646.25 2311.410156 1497.351563 2492.890625 1609.03125 C 2492.890625 1609.03125 2387.019531 1634.628906 2361.429688 1699.769531 C 2361.429688 1699.769531 2353.289063 1640.441406 2362.601563 1618.328125 C 2362.601563 1618.328125 2247.421875 1643.929688 2222.988281 1720.71875 C 2222.988281 1720.71875 2286.96875 1732.351563 2324.210938 1716.058594 C 2324.210938 1716.058594 2299.921875 1757.96875 2234.628906 1764.921875 C 2232.589844 1815.851563 2213.761719 1914.980469 2161.339844 1935.941406 "/>
<path style=" stroke:none;fill-rule:evenodd;fill:rgb(100%,100%,100%);fill-opacity:1;" d="M 1567.328125 1985.398438 C 1567.328125 1985.398438 1364.03125 2165.890625 1432.171875 2488.96875 C 1482.828125 2572.78125 1559.519531 2657.019531 1673.210938 2734.578125 C 1673.210938 2734.578125 1712.769531 2660.128906 1801.179688 2629.878906 C 1801.179688 2629.878906 1789.609375 2829.980469 2000.148438 2946.320313 C 2210.699219 2829.980469 2199.121094 2629.878906 2199.121094 2629.878906 C 2287.539063 2660.128906 2327.101563 2734.578125 2327.101563 2734.578125 C 2440.78125 2657.019531 2517.46875 2572.78125 2568.140625 2488.96875 C 2636.269531 2165.890625 2432.980469 1985.398438 2432.980469 1985.398438 C 2432.980469 1985.398438 2530.710938 2236.679688 2349.21875 2350.691406 C 2349.21875 2350.691406 2344.570313 2487.96875 2191 2497.28125 C 2162.820313 2575.308594 2081.300781 2614.039063 2000.148438 2613.480469 C 1919 2614.039063 1837.480469 2575.308594 1809.300781 2497.28125 C 1655.738281 2487.96875 1651.078125 2350.691406 1651.078125 2350.691406 C 1469.601563 2236.679688 1567.328125 1985.398438 1567.328125 1985.398438 "/>
<path style=" stroke:none;fill-rule:evenodd;fill:rgb(100%,100%,100%);fill-opacity:1;" d="M 1637.71875 1618.328125 C 1647.03125 1640.441406 1638.878906 1699.769531 1638.878906 1699.769531 C 1628.878906 1674.351563 1606.671875 1654.949219 1583.300781 1640.738281 C 1583.300781 1640.738281 1620.398438 1768.339844 1765.691406 1764.921875 C 1700.398438 1757.96875 1676.109375 1716.058594 1676.109375 1716.058594 C 1713.328125 1732.351563 1777.320313 1720.71875 1777.320313 1720.71875 C 1752.890625 1643.929688 1637.71875 1618.328125 1637.71875 1618.328125 "/>
<path style=" stroke:none;fill-rule:evenodd;fill:rgb(100%,100%,100%);fill-opacity:1;" d="M 2362.601563 1618.328125 C 2353.289063 1640.441406 2361.429688 1699.769531 2361.429688 1699.769531 C 2371.421875 1674.351563 2393.628906 1654.949219 2417.011719 1640.738281 C 2417.011719 1640.738281 2379.910156 1768.339844 2234.628906 1764.921875 C 2299.921875 1757.96875 2324.210938 1716.058594 2324.210938 1716.058594 C 2286.96875 1732.351563 2222.988281 1720.71875 2222.988281 1720.71875 C 2247.421875 1643.929688 2362.601563 1618.328125 2362.601563 1618.328125 "/>
<path style=" stroke:none;fill-rule:evenodd;fill:rgb(100%,100%,100%);fill-opacity:1;" d="M 2453.050781 3164.761719 C 2310.628906 3268.859375 2100.011719 3438.230469 2000.160156 3491.941406 C 1972.199219 3491.941406 1588.789063 3195.121094 1547.28125 3164.789063 C 1548.648438 3166.628906 1550.050781 3168.488281 1551.488281 3170.351563 C 1551.488281 3170.351563 1460.738281 3181.988281 1432.820313 3121.488281 C 1432.820313 3121.488281 1447.339844 3290.46875 1703.390625 3425.820313 L 1859.679688 3495.558594 C 1905.851563 3500.378906 1952.699219 3502.890625 2000.148438 3502.890625 C 2047.589844 3502.890625 2094.460938 3500.378906 2140.621094 3495.558594 L 2296.910156 3425.820313 L 2297 3425.769531 C 2552.988281 3290.429688 2567.5 3121.488281 2567.5 3121.488281 C 2539.578125 3181.988281 2448.828125 3170.351563 2448.828125 3170.351563 C 2450.261719 3168.480469 2451.679688 3166.621094 2453.050781 3164.761719 "/>
<path style=" stroke:none;fill-rule:evenodd;fill:rgb(0.799561%,0.799561%,0.799561%);fill-opacity:1;" d="M 1939.609375 2415.851563 C 1939.609375 2415.851563 1799.28125 2453.621094 1738.53125 2408.929688 C 1778.878906 2417.410156 1816.21875 2380.75 1816.21875 2380.75 C 1786.910156 2391.039063 1710.730469 2380.058594 1711.050781 2349.289063 C 1753.988281 2396.839844 1817.53125 2349.730469 1817.53125 2349.730469 C 1779.5 2357.429688 1709.179688 2331.410156 1711.941406 2290.488281 C 1740.820313 2330.96875 1802.789063 2314.089844 1802.789063 2314.089844 C 1722.828125 2300.191406 1721.929688 2220.210938 1721.921875 2219.570313 C 1728.269531 2189.609375 1738.171875 2155.808594 1753.46875 2120.351563 C 1753.46875 2120.351563 1683.660156 2192.480469 1665.050781 2248.320313 C 1665.050781 2248.320313 1553.898438 2205.300781 1567.328125 1985.398438 C 1567.328125 1985.398438 1469.601563 2236.679688 1651.078125 2350.691406 C 1651.078125 2350.691406 1655.738281 2487.96875 1809.300781 2497.28125 C 1837.480469 2575.320313 1919.019531 2614.011719 2000.160156 2613.441406 C 2081.300781 2614.011719 2162.828125 2575.320313 2191.019531 2497.28125 C 2344.578125 2487.96875 2349.230469 2350.691406 2349.230469 2350.691406 C 2530.71875 2236.679688 2432.988281 1985.398438 2432.988281 1985.398438 C 2446.421875 2205.300781 2335.28125 2248.320313 2335.28125 2248.320313 C 2316.648438 2192.480469 2246.851563 2120.351563 2246.851563 2120.351563 C 2262.160156 2155.808594 2272.050781 2189.609375 2278.398438 2219.570313 C 2278.390625 2220.210938 2277.488281 2300.191406 2197.539063 2314.089844 C 2197.539063 2314.089844 2259.488281 2330.96875 2288.371094 2290.488281 C 2291.148438 2331.410156 2220.820313 2357.429688 2182.789063 2349.730469 C 2182.789063 2349.730469 2246.320313 2396.839844 2289.269531 2349.289063 C 2289.601563 2380.058594 2213.421875 2391.039063 2184.101563 2380.75 C 2184.101563 2380.75 2221.429688 2417.410156 2261.789063 2408.929688 C 2201.050781 2453.621094 2060.710938 2415.851563 2060.710938 2415.851563 C 1972.300781 2336.730469 2118.878906 2252.96875 2118.878906 2252.96875 C 2214.269531 2145.941406 2121.210938 2094.75 2121.210938 2094.75 L 1879.101563 2094.75 C 1879.101563 2094.75 1786.039063 2145.941406 1881.441406 2252.96875 C 1881.441406 2252.96875 2028.019531 2336.730469 1939.609375 2415.851563 Z M 2000.160156 2562.050781 C 1940.761719 2562.660156 1881 2532.550781 1858.171875 2471.691406 C 1911.398438 2457.421875 1955.710938 2450.390625 2000.160156 2450.578125 C 2044.609375 2450.390625 2088.921875 2457.421875 2142.148438 2471.691406 C 2119.320313 2532.550781 2059.558594 2562.660156 2000.160156 2562.050781 "/>
</g>
</svg>
