<?xml version="1.0" encoding="UTF-8" standalone="no"?>
<svg
   xmlns:dc="http://purl.org/dc/elements/1.1/"
   xmlns:cc="http://creativecommons.org/ns#"
   xmlns:rdf="http://www.w3.org/1999/02/22-rdf-syntax-ns#"
   xmlns:svg="http://www.w3.org/2000/svg"
   xmlns="http://www.w3.org/2000/svg"
   viewBox="0 0 5334.6665 5334.6665"
   height="5334.6665"
   width="5334.6665"
   xml:space="preserve"
   id="svg2"
   version="1.1"><metadata
     id="metadata8"><rdf:RDF><cc:Work
         rdf:about=""><dc:format>image/svg+xml</dc:format><dc:type
           rdf:resource="http://purl.org/dc/dcmitype/StillImage" /></cc:Work></rdf:RDF></metadata><defs
     id="defs6" /><g
     transform="matrix(1.3333333,0,0,-1.3333333,0,5334.6667)"
     id="g10"><g
       transform="scale(0.1)"
       id="g12"><g
         transform="scale(2.45429)"
         id="g14"><path
           id="path16"
           style="fill:#ffffff;fill-opacity:1;fill-rule:nonzero;stroke:none"
           d="M 16300,2.03725 H 2.03725 V 16300 H 16300 V 2.03725" /></g><g
         transform="scale(2.45429)"
         id="g18"><path
           id="path20"
           style="fill:none;stroke:#211d1d;stroke-width:4.07449007;stroke-linecap:butt;stroke-linejoin:miter;stroke-miterlimit:10;stroke-dasharray:none;stroke-opacity:1"
           d="M 16300,2.03725 H 2.03725 V 16300 H 16300 Z" /></g><g
         transform="scale(1.41027)"
         id="g22"><path
           id="path24"
           style="fill:#100f0d;fill-opacity:1;fill-rule:evenodd;stroke:none"
           d="m 11578.3,15784.5 c 0,-284.7 230.8,-515.5 515.6,-515.5 284.6,0 515.3,230.8 515.3,515.5 0,117.3 -39.1,225.3 -104.9,311.9 -38.1,-58.7 -104.2,-97.5 -179.4,-97.5 -117.9,0 -213.5,95.6 -213.5,213.5 0,30.7 6.6,59.9 18.3,86.4 -11.9,0.8 -23.8,1.2 -35.8,1.2 -284.8,0 -515.6,-230.8 -515.6,-515.5" /></g><g
         transform="scale(1.45242)"
         id="g26"><path
           id="path28"
           style="fill:#100f0d;fill-opacity:1;fill-rule:evenodd;stroke:none"
           d="m 16300,15326.4 c 0,-276.4 -224.1,-500.6 -500.5,-500.6 -276.4,0 -500.5,224.2 -500.5,500.6 0,113.9 37.9,218.8 102,302.9 36.9,-57 101,-94.7 174.1,-94.7 114.4,0 207.2,92.8 207.2,207.3 0,29.8 -6.3,58.2 -17.6,83.9 11.6,0.7 23.1,1.1 34.8,1.1 276.4,0 500.5,-224.1 500.5,-500.5" /></g><g
         transform="scale(1.91668)"
         id="g30"><path
           id="path32"
           style="fill:#100f0d;fill-opacity:1;fill-rule:evenodd;stroke:none"
           d="m 8437.59,10754 c 0,0 -921.8,626.2 -436.64,1720 0,0 -17.68,-185.2 273.49,-352.8 0,0 -176.19,896.7 767.37,1631.8 0,0 -661.51,520.4 -767.37,1190.8 0,0 -220.59,-282.2 -246.98,-511.6 0,0 -132.37,714.5 264.57,1323.1 0,0 229.4,-979.1 1226.07,-1640.6 266.24,86.8 591.9,130.2 917.4,130.2 325.5,0 651.1,-43.4 917.4,-130.2 996.7,661.5 1226,1640.6 1226,1640.6 397,-608.6 264.7,-1323.1 264.7,-1323.1 -26.5,229.4 -247,511.6 -247,511.6 -105.9,-670.4 -767.4,-1190.8 -767.4,-1190.8 943.5,-735.1 767.4,-1631.8 767.4,-1631.8 291.1,167.6 273.4,352.8 273.4,352.8 485.1,-1093.8 -436.6,-1720 -436.6,-1720 291.1,48.5 458.7,202.8 458.7,202.8 376,-589.7 -32.6,-1352.61 -489.6,-1486.23 388.1,-22.07 480.8,123.5 480.8,123.5 405.7,-688.01 -666,-606.47 -666,-606.47 -359.5,35.32 -518.2,4.44 -518.2,4.44 158.7,-66.16 595.4,-379.3 595.4,-379.3 392.5,-396.94 -419,-740.92 -419,-740.92 44.1,141.13 -57.3,383.69 -57.3,383.69 -154.4,-705.65 -1027.7,-688.02 -1027.7,-688.02 167.6,-132.31 688.1,-158.76 688.1,-158.76 714.5,-88.22 485.1,-1093.76 485.1,-1093.76 344,255.8 273.5,749.73 273.5,749.73 449.8,-908.55 -185.3,-1561.29 -185.3,-1561.29 617.5,264.68 688,714.51 688,714.51 59.9,-672.88 -74.5,-1216 -289,-1645.6 246.1,111.6 481.2,242.97 703.5,392.14 247.8,800.65 0.1,1535.72 0.1,1535.72 308.7,926.18 -150,2205.17 -150,2205.17 476.3,317.57 247,1014.4 247,1014.4 546.9,705.65 -70.6,1649.45 -70.6,1649.45 449.9,864.4 -229.3,1887.6 -229.3,1887.6 890.9,2187.6 -493.9,3043.2 -493.9,3043.2 -299.9,-996.8 -1287.8,-1865.6 -1287.8,-1865.6 -123.1,40.7 -428.8,61.1 -734.4,61.1 -305.7,0 -611.3,-20.4 -734.37,-61.1 0,0 -987.91,868.8 -1287.75,1865.6 0,0 -1384.89,-855.6 -493.98,-3043.2 0,0 -679.19,-1023.2 -229.4,-1887.6 0,0 -617.42,-943.8 -70.54,-1649.45 0,0 -229.3,-696.83 246.99,-1014.4 0,0 -458.71,-1278.99 -149.95,-2205.17 0,0 -247.66,-735.07 0.05,-1535.72 222.26,-149.17 457.41,-280.54 703.56,-392.14 -214.43,429.6 -348.93,972.72 -288.99,1645.6 0,0 70.49,-449.83 687.96,-714.51 0,0 -635.1,652.74 -185.21,1561.29 0,0 -70.54,-493.93 273.39,-749.73 0,0 -229.31,1005.54 485.16,1093.76 0,0 520.48,26.45 687.98,158.76 0,0 -873.2,-17.63 -1027.58,688.02 0,0 -101.48,-242.56 -57.29,-383.69 0,0 -811.55,343.98 -419,740.92 0,0 436.59,313.14 595.4,379.3 0,0 -158.81,30.88 -518.24,-4.44 0,0 -1071.74,-81.54 -665.94,606.47 0,0 92.61,-145.57 480.73,-123.5 -456.99,133.62 -865.67,896.53 -489.6,1486.23 0,0 167.63,-154.3 458.71,-202.8" /></g><g
         transform="scale(1.43205)"
         id="g34"><path
           id="path36"
           style="fill:#100f0d;fill-opacity:1;fill-rule:evenodd;stroke:none"
           d="m 12751,14523.2 c 0,0 -359.4,-743 -237.3,-1409.4 86.4,-471.1 747.7,-1092.8 178.3,-1595.1 0,0 327.6,-8.9 560.8,224.3 0,0 342.5,-180.1 714.2,-147.7 372,-32.4 714.3,147.7 714.3,147.7 233.2,-233.2 560.8,-224.3 560.8,-224.3 -569.4,502.3 92,1124 178.4,1595.1 122.1,666.4 -237.4,1409.4 -237.4,1409.4 153.5,861.8 -513.6,1269.1 -513.6,1269.1 53.2,348.3 -224.3,507.7 -224.3,507.7 283.3,-673 -478.2,-684.8 -478.2,-684.8 0,0 -761.4,11.8 -478.1,684.8 0,0 -277.4,-159.4 -224.3,-507.7 0,0 -667.1,-407.3 -513.6,-1269.1 z m 1216,-2544.1 c -728.9,17.7 -858.8,566.7 -858.8,566.7 531.2,-118.1 858.8,153.4 858.8,153.4 0,0 327.7,-271.5 859,-153.4 0,0 -129.9,-549 -859,-566.7 z m 0,2293.2 c 0,0 -330.5,832.3 -861.8,478.2 0,0 -194.7,265.6 253.8,696.5 0,0 165.4,-153.5 608,-141.7 442.8,-11.8 608.1,141.7 608.1,141.7 448.5,-430.9 253.8,-696.5 253.8,-696.5 -531.3,354.1 -861.9,-478.2 -861.9,-478.2 z m 1102.2,-906.2 c 76.2,610.2 -233.5,1214.2 -573.1,1008.5 -427.6,-259 -492.9,-1081.3 -160.1,-1474.7 477,-298.2 681.3,49.4 733.2,466.2 z m -2204.3,0 c -76.2,610.2 233.6,1214.2 573.1,1008.5 427.6,-259 493,-1081.3 160.1,-1474.7 -477,-298.2 -681.2,49.4 -733.2,466.2" /></g></g></g></svg>