<?xml version="1.0" encoding="UTF-8" standalone="no"?>
<svg
   xmlns:dc="http://purl.org/dc/elements/1.1/"
   xmlns:cc="http://creativecommons.org/ns#"
   xmlns:rdf="http://www.w3.org/1999/02/22-rdf-syntax-ns#"
   xmlns:svg="http://www.w3.org/2000/svg"
   xmlns="http://www.w3.org/2000/svg"
   viewBox="0 0 5334.6665 5334.6665"
   height="5334.6665"
   width="5334.6665"
   xml:space="preserve"
   id="svg2"
   version="1.1"><metadata
     id="metadata8"><rdf:RDF><cc:Work
         rdf:about=""><dc:format>image/svg+xml</dc:format><dc:type
           rdf:resource="http://purl.org/dc/dcmitype/StillImage" /></cc:Work></rdf:RDF></metadata><defs
     id="defs6" /><g
     transform="matrix(1.3333333,0,0,-1.3333333,0,5334.6667)"
     id="g10"><g
       transform="scale(0.1)"
       id="g12"><g
         transform="scale(2.45429)"
         id="g14"><path
           id="path16"
           style="fill:#ffffff;fill-opacity:1;fill-rule:nonzero;stroke:none"
           d="M 16300,2.03725 H 2.03725 V 16300 H 16300 V 2.03725" /></g><g
         transform="scale(2.45429)"
         id="g18"><path
           id="path20"
           style="fill:none;stroke:#211d1d;stroke-width:4.07449007;stroke-linecap:butt;stroke-linejoin:miter;stroke-miterlimit:10;stroke-dasharray:none;stroke-opacity:1"
           d="M 16300,2.03725 H 2.03725 V 16300 H 16300 Z" /></g><g
         transform="scale(1.12381)"
         id="g22"><path
           id="path24"
           style="fill:#100f0d;fill-opacity:1;fill-rule:evenodd;stroke:none"
           d="m 14872.9,14499.1 c 0,0 664.3,-189.8 929,-759.4 0,0 -129.4,-86.2 -652.9,14.4 0,0 183,-145.3 501.7,-243.4 253,-77.6 472.2,-337.1 505,-599.3 110.2,795.6 144.3,1629.1 -601.2,2180.2 0,0 195.6,-414.2 207.1,-713.4 0,0 -287.6,552.3 -1150.5,494.8 0,0 -86.3,-549.3 279.1,-906 0,0 -71.9,281.9 -17.3,532.1" /></g><g
         transform="scale(1.45275)"
         id="g26"><path
           id="path28"
           style="fill:#100f0d;fill-opacity:1;fill-rule:evenodd;stroke:none"
           d="m 16030.8,11216.1 c 0,0 -514,-146.8 -718.7,-587.4 0,0 100.1,-66.7 505.1,11.1 0,0 -141.7,-112.4 -388.2,-188.2 -195.6,-60.1 -365.3,-260.8 -390.6,-463.64 -85.2,615.44 -111.7,1260.24 465.1,1686.54 0,0 -151.4,-320.4 -160.2,-551.9 0,0 222.4,427.2 889.9,382.8 0,0 66.8,-425 -215.8,-700.9 0,0 55.7,218.1 13.4,411.6" /></g><g
         transform="scale(2.11629)"
         id="g30"><path
           id="path32"
           style="fill:#100f0d;fill-opacity:1;fill-rule:evenodd;stroke:none"
           d="m 6048.18,8130.18 c 0,0 525.45,-97.77 989.8,-42.77 0,0 -55,-775.93 372.64,-1301.33 0,0 -1221.91,-2199.42 -598.74,-2932.59 0,0 36.57,-78.82 118.51,-206.25 239.19,-192.42 500.87,-358.04 780.42,-492.33 -393.38,542.65 -722.49,1267.64 -507.92,2030.44 0,0 -109.95,-464.3 452.12,-867.51 0,0 -281.02,586.45 97.76,1380.72 0,0 391.02,-916.41 879.75,-830.89 0,0 281.06,-488.73 818.7,-537.64 537.64,48.91 818.68,537.64 818.68,537.64 488.8,-85.52 879.8,830.89 879.8,830.89 378.7,-794.27 97.7,-1380.72 97.7,-1380.72 562.1,403.21 452.1,867.51 452.1,867.51 214.6,-762.8 -114.5,-1487.79 -507.9,-2030.44 279.6,134.29 541.2,299.91 780.4,492.33 82,127.43 118.6,206.25 118.6,206.25 623.1,733.17 -598.8,2932.59 -598.8,2932.59 427.7,525.4 372.7,1301.33 372.7,1301.33 464.3,-55 989.7,42.77 989.7,42.77 226.1,48.9 146.6,446.01 146.6,446.01 l 268.8,-317.67 c 1930.6,537.59 1588.5,2138.28 1588.5,2138.28 -1295.2,305.5 -2993.6,-439.84 -2993.6,-439.84 281,464.34 1075.2,769.84 1075.2,769.84 3360.3,464.3 2761.6,2737 2761.6,2737 -220,-513.2 -1002,-892 -1002,-892 830.9,2077.2 -1014.2,3177 -1014.2,3177 916.4,-2969.3 -1368.5,-3922.3 -1368.5,-3922.3 -158.9,610.9 -782.1,916.4 -782.1,916.4 293.3,-1637.4 -1130.2,-2755.41 -1130.2,-2755.41 -320.4,-102.54 -1585.75,-102.54 -1906.17,0 0,0 -1423.53,1118.01 -1130.28,2755.41 0,0 -623.16,-305.5 -781.98,-916.4 0,0 -2284.96,953 -1368.58,3922.3 0,0 -1845.05,-1099.8 -1014.13,-3177 0,0 -782.07,378.8 -1001.96,892 0,0 -598.75,-2272.7 2761.46,-2737 0,0 794.26,-305.5 1075.32,-769.84 0,0 -1698.44,745.34 -2993.67,439.84 0,0 -342.13,-1600.69 1588.48,-2138.28 l 268.77,317.67 c 0,0 -79.43,-397.11 146.62,-446.01 z M 9451.22,4606.51 c -331.57,42.76 -505.42,348.25 -505.42,348.25 226.01,91.62 505.42,219.91 505.42,219.91 0,0 279.35,-128.29 505.41,-219.91 0,0 -173.84,-305.49 -505.41,-348.25 z m 0,1470.83 c -110.01,128.29 -366.54,97.76 -366.54,97.76 -250.44,30.53 -336.01,702.6 -336.01,702.6 l 24.47,-672.07 c 0,-702.55 378.73,-812.56 378.73,-812.56 91.67,-152.72 -500.97,-287.15 -500.97,-287.15 -452.06,6.1 -238.25,879.8 -238.25,879.8 -177.19,-213.87 -201.62,-452.12 -201.62,-452.12 -250.49,293.25 -250.49,739.27 -250.49,739.27 146.63,-85.53 360.44,-79.43 360.44,-79.43 -1502.91,1063.04 -482.63,2132.17 -482.63,2132.17 -739.27,1203.62 -2993.69,1325.77 -2993.69,1325.77 -48.86,-421.54 201.63,-836.99 201.63,-836.99 -733.14,513.21 -708.71,1362.41 -708.71,1362.41 1967.28,146.7 3653.53,-1142.45 3653.53,-1142.45 293.21,109.96 555.93,348.21 555.93,348.21 -18.33,-189.39 -152.77,-421.54 -152.77,-421.54 403.26,329.92 433.83,647.6 433.83,647.6 81.37,-8.42 1164.91,-8.42 1246.2,0 0,0 30.6,-317.68 433.8,-647.6 0,0 -134.4,232.15 -152.7,421.54 0,0 262.7,-238.25 556,-348.21 0,0 1686.2,1289.15 3653.4,1142.45 0,0 24.5,-849.2 -708.7,-1362.41 0,0 250.5,415.45 201.7,836.99 0,0 -2254.5,-122.15 -2993.8,-1325.77 0,0 1020.4,-1069.13 -482.6,-2132.17 0,0 213.9,-6.1 360.5,79.43 0,0 0,-446.02 -250.5,-739.27 0,0 -24.4,238.25 -201.6,452.12 0,0 213.8,-873.7 -238.3,-879.8 0,0 -592.61,134.43 -500.94,287.15 0,0 378.74,110.01 378.74,812.56 l 24.5,672.07 c 0,0 -85.6,-672.07 -336.09,-702.6 0,0 -256.49,30.53 -366.49,-97.76 z m 1686.18,3506.89 c 317.7,672.07 1466.3,1405.17 1466.3,1405.17 818.7,391 1344.1,1063.1 1344.1,1063.1 1258.5,1368.5 207.7,2859.2 207.7,2859.2 415.5,-2504.9 -1808.4,-3354.1 -1808.4,-3354.1 -43.4,-304 -232.1,-470.5 -232.1,-470.5 36.6,672.1 -330,1026.5 -330,1026.5 85.6,-1270.8 -1124.1,-2223.93 -1124.1,-2223.93 167,-287.39 322.3,10.02 538.8,255.63 204.4,231.9 432.6,367.6 432.6,367.6 -421.6,-421.6 -494.9,-928.67 -494.9,-928.67 z m 3060.9,1979.47 c 450.9,-180.3 1181.6,589.8 1209.7,1118 0,0 -311.7,-299.3 -885.9,-464.3 0,0 -158.9,-287.1 -378.8,-439.9 0,0 409.3,55 629.3,232.2 -147.1,-259.2 -327.8,-328.9 -574.3,-446 z M 7765.01,9584.23 c -317.68,672.07 -1466.25,1405.17 -1466.25,1405.17 -818.69,391 -1344.1,1063.1 -1344.1,1063.1 -1258.58,1368.5 -207.76,2859.2 -207.76,2859.2 -415.42,-2504.9 1808.4,-3354.1 1808.4,-3354.1 43.52,-304 232.2,-470.5 232.2,-470.5 -36.67,672.1 329.87,1026.5 329.87,1026.5 -85.53,-1270.8 1124.18,-2223.93 1124.18,-2223.93 -166.99,-287.39 -322.26,10.02 -538.77,255.63 -204.46,231.9 -432.65,367.6 -432.65,367.6 421.54,-421.6 494.88,-928.67 494.88,-928.67 z M 4704.14,11563.7 c -450.87,-180.3 -1181.61,589.8 -1209.64,1118 0,0 311.57,-299.3 885.88,-464.3 0,0 158.81,-287.1 378.75,-439.9 0,0 -409.32,55 -629.26,232.2 147.1,-259.2 327.71,-328.9 574.27,-446" /></g></g></g></svg>